<svg width="31" height="31" viewBox="0 0 31 31" fill="none" xmlns="http://www.w3.org/2000/svg">
<path fill-rule="evenodd" clip-rule="evenodd" d="M19.9174 14.3148C19.9174 14.3148 14.1305 23.698 9.38607 23.698C1.08746 23.698 8.82117 5.82257 14.8736 5.82257C19.0969 5.82257 19.9174 14.3148 19.9174 14.3148Z" fill="#F67599"/>
<path fill-rule="evenodd" clip-rule="evenodd" d="M26.7938 26.1153C25.1452 27.8695 23.1106 29.2156 20.8512 30.0468C18.5917 30.878 16.1697 31.1715 13.7771 30.904C11.3845 30.6364 9.08717 29.8152 7.06723 28.5055C5.04729 27.1958 3.36032 25.4335 2.14008 23.3585C3.51197 25.2244 5.83881 26.4683 9.14749 26.4683C17.2982 26.4683 21.9249 20.1344 21.9249 20.1344C21.9249 20.1344 22.3251 25.1403 26.7837 26.1153H26.7938Z" fill="#F67599"/>
<path fill-rule="evenodd" clip-rule="evenodd" d="M29.2349 8.32721C30.4548 10.6581 31.0607 13.2613 30.9954 15.8912C30.9301 18.5211 30.1958 21.091 28.8617 23.3584C27.8065 22.7666 27.0263 21.7837 26.6895 20.6218L24.9208 15.3234L29.2349 8.32721Z" fill="#808080"/>
<path fill-rule="evenodd" clip-rule="evenodd" d="M15.5025 0.0134609C19.3895 0.010876 23.1349 1.47159 25.9935 4.10493L23.058 8.84189C21.9955 6.07838 19.8368 3.31152 15.637 3.31152C7.03581 3.31152 0.660542 12.7014 0.660542 18.5882C0.658647 19.3495 0.755849 20.1078 0.949711 20.844C0.0895766 18.5013 -0.192161 15.9857 0.128433 13.5108C0.449026 11.0359 1.36248 8.67496 2.79115 6.62867C4.21983 4.58237 6.1215 2.91118 8.33454 1.75714C10.5476 0.603093 13.0066 0.000301095 15.5025 0V0.0134609Z" fill="#808080"/>
</svg>
